<mxfile host="Electron" modified="2023-07-25T15:25:38.884Z" agent="5.0 (Macintosh; Intel Mac OS X 10_15_7) AppleWebKit/537.36 (KHTML, like Gecko) draw.io/20.2.8 Chrome/102.0.5005.167 Electron/19.0.15 Safari/537.36" etag="HcdWMuxhgkf4dKJ1IWO1" compressed="false" version="20.2.8" type="device">
  <diagram id="bn-hulYkHRoHOVyjFJQa" name="第 1 页">
    <mxGraphModel dx="1572" dy="1294" grid="0" gridSize="10" guides="1" tooltips="1" connect="1" arrows="1" fold="1" page="0" pageScale="1" pageWidth="827" pageHeight="1169" math="0" shadow="0">
      <root>
        <mxCell id="0" />
        <mxCell id="1" parent="0" />
        <mxCell id="bW7gFCEQgYg3LuaQaCkl-20" value="&lt;div style=&quot;text-align: center; font-size: 16px;&quot;&gt;&lt;i style=&quot;background-color: initial;&quot;&gt;&lt;br&gt;&lt;/i&gt;&lt;/div&gt;&lt;div style=&quot;text-align: center; font-size: 16px;&quot;&gt;&lt;i style=&quot;background-color: initial;&quot;&gt;&amp;lt;&amp;lt;Class&amp;gt;&amp;gt;&lt;/i&gt;&lt;/div&gt;&lt;div style=&quot;text-align: center; font-size: 16px;&quot;&gt;&lt;span style=&quot;background-color: initial;&quot;&gt;ExtensionLoader&amp;lt;T&amp;gt;&lt;/span&gt;&lt;/div&gt;&lt;div style=&quot;height:2px;&quot;&gt;&lt;p&gt;&lt;/p&gt;&lt;hr style=&quot;text-align: center;&quot; size=&quot;1&quot;&gt;&lt;p style=&quot;margin: 4px 0px 0px;&quot;&gt;&lt;span style=&quot;color: rgb(188, 190, 196); font-family: &amp;quot;JetBrains Mono&amp;quot;, monospace; font-size: 16px;&quot;&gt;&amp;nbsp;-&amp;nbsp;&lt;/span&gt;&lt;span style=&quot;font-size: 16px; color: rgb(207, 142, 109); font-family: &amp;quot;JetBrains Mono&amp;quot;, monospace;&quot;&gt;static&amp;nbsp;&lt;/span&gt;&lt;span style=&quot;font-size: 16px; color: rgb(188, 190, 196); font-family: &amp;quot;JetBrains Mono&amp;quot;, monospace;&quot;&gt;ConcurrentMap&amp;lt;Class&amp;lt;?&amp;gt;, ExtensionLoader&amp;lt;?&amp;gt;&amp;gt;&amp;nbsp;&lt;/span&gt;&lt;span style=&quot;font-size: 16px; font-family: &amp;quot;JetBrains Mono&amp;quot;, monospace; color: rgb(199, 125, 187); font-style: italic;&quot;&gt;EXTENSION_LOADERS&lt;/span&gt;&lt;span style=&quot;color: rgb(188, 190, 196); font-family: &amp;quot;JetBrains Mono&amp;quot;, monospace; font-size: 16px;&quot;&gt;&lt;br&gt;&lt;/span&gt;&lt;span style=&quot;color: rgb(188, 190, 196); font-family: &amp;quot;JetBrains Mono&amp;quot;, monospace; font-size: 16px;&quot;&gt;&amp;nbsp;-&amp;nbsp;&lt;/span&gt;&lt;span style=&quot;font-size: 16px; font-family: &amp;quot;JetBrains Mono&amp;quot;, monospace; color: rgb(207, 142, 109);&quot;&gt;static&amp;nbsp;&lt;/span&gt;&lt;span style=&quot;font-size: 16px; color: rgb(188, 190, 196); font-family: &amp;quot;JetBrains Mono&amp;quot;, monospace;&quot;&gt;ConcurrentMap&amp;lt;Class&amp;lt;?&amp;gt;, Object&amp;gt;&amp;nbsp;&lt;/span&gt;&lt;span style=&quot;font-size: 16px; font-family: &amp;quot;JetBrains Mono&amp;quot;, monospace; color: rgb(199, 125, 187); font-style: italic;&quot;&gt;EXTENSION_INSTANCES&lt;/span&gt;&lt;span style=&quot;color: rgb(188, 190, 196); font-family: &amp;quot;JetBrains Mono&amp;quot;, monospace; font-size: 16px;&quot;&gt;&lt;br&gt;&lt;/span&gt;&lt;span style=&quot;color: rgb(188, 190, 196); font-family: &amp;quot;JetBrains Mono&amp;quot;, monospace; font-size: 16px;&quot;&gt;&amp;nbsp;-&amp;nbsp;&lt;/span&gt;&lt;font style=&quot;font-size: 16px;&quot;&gt;&lt;span style=&quot;color: rgb(188, 190, 196); font-family: &amp;quot;JetBrains Mono&amp;quot;, monospace;&quot;&gt;C&lt;/span&gt;&lt;/font&gt;&lt;span style=&quot;font-size: 12pt; color: rgb(188, 190, 196); font-family: &amp;quot;JetBrains Mono&amp;quot;, monospace;&quot;&gt;lass&amp;lt;&lt;/span&gt;&lt;span style=&quot;font-size: 12pt; font-family: &amp;quot;JetBrains Mono&amp;quot;, monospace; color: rgb(22, 186, 172);&quot;&gt;T&lt;/span&gt;&lt;span style=&quot;font-size: 12pt; color: rgb(188, 190, 196); font-family: &amp;quot;JetBrains Mono&amp;quot;, monospace;&quot;&gt;&amp;gt;&amp;nbsp;&lt;/span&gt;&lt;span style=&quot;font-size: 12pt; font-family: &amp;quot;JetBrains Mono&amp;quot;, monospace; color: rgb(199, 125, 187);&quot;&gt;type&lt;/span&gt;&lt;span style=&quot;color: rgb(188, 190, 196); font-family: &amp;quot;JetBrains Mono&amp;quot;, monospace; font-size: 16px;&quot;&gt;&lt;br&gt;&lt;/span&gt;&lt;span style=&quot;color: rgb(188, 190, 196); font-family: &amp;quot;JetBrains Mono&amp;quot;, monospace; font-size: 16px;&quot;&gt;&amp;nbsp;-&amp;nbsp;&lt;/span&gt;&lt;span style=&quot;color: rgb(188, 190, 196); font-family: &amp;quot;JetBrains Mono&amp;quot;, monospace; font-size: 12pt;&quot;&gt;Class&amp;lt;?&amp;nbsp;&lt;/span&gt;&lt;span style=&quot;font-family: &amp;quot;JetBrains Mono&amp;quot;, monospace; font-size: 12pt; color: rgb(207, 142, 109);&quot;&gt;extends&amp;nbsp;&lt;/span&gt;&lt;span style=&quot;font-family: &amp;quot;JetBrains Mono&amp;quot;, monospace; font-size: 12pt; color: rgb(22, 186, 172);&quot;&gt;T&lt;/span&gt;&lt;span style=&quot;color: rgb(188, 190, 196); font-family: &amp;quot;JetBrains Mono&amp;quot;, monospace; font-size: 12pt;&quot;&gt;&amp;gt;&amp;nbsp;&lt;/span&gt;&lt;span style=&quot;font-family: &amp;quot;JetBrains Mono&amp;quot;, monospace; font-size: 12pt; color: rgb(199, 125, 187);&quot;&gt;cachedAdaptiveClass&lt;/span&gt;&lt;span style=&quot;color: rgb(188, 190, 196); font-family: &amp;quot;JetBrains Mono&amp;quot;, monospace; font-size: 12pt;&quot;&gt;&lt;br&gt;&lt;/span&gt;&lt;span style=&quot;color: rgb(188, 190, 196); font-family: &amp;quot;JetBrains Mono&amp;quot;, monospace; font-size: 12pt;&quot;&gt;&amp;nbsp;- Set&amp;lt;Class&amp;lt;?&amp;gt;&amp;gt;&amp;nbsp;&lt;/span&gt;&lt;span style=&quot;font-family: &amp;quot;JetBrains Mono&amp;quot;, monospace; font-size: 12pt; color: rgb(199, 125, 187);&quot;&gt;cachedWrapperClasses&lt;/span&gt;&lt;span style=&quot;color: rgb(188, 190, 196); font-family: &amp;quot;JetBrains Mono&amp;quot;, monospace; font-size: 12pt;&quot;&gt;&lt;br&gt;&lt;/span&gt;&lt;/p&gt;&lt;div style=&quot;font-family: &amp;quot;JetBrains Mono&amp;quot;, monospace; font-size: 12pt;&quot;&gt;&lt;span style=&quot;color: rgb(188, 190, 196);&quot;&gt;&amp;nbsp;- Holder&amp;lt;Map&amp;lt;String, Class&amp;lt;?&amp;nbsp;&lt;span style=&quot;color: rgb(207, 142, 109);&quot;&gt;extends&amp;nbsp;&lt;/span&gt;&lt;span style=&quot;color: rgb(22, 186, 172);&quot;&gt;T&lt;/span&gt;&amp;gt;&amp;gt;&amp;gt;&amp;nbsp;&lt;span style=&quot;color: rgb(199, 125, 187);&quot;&gt;cachedClasses&lt;/span&gt;&lt;br&gt;&amp;nbsp;- Holder&amp;lt;&lt;span style=&quot;color: rgb(22, 186, 172);&quot;&gt;T&lt;/span&gt;&amp;gt;&amp;nbsp;&lt;span style=&quot;color: rgb(199, 125, 187);&quot;&gt;cachedAdaptiveInstance&lt;/span&gt;&lt;/span&gt;&lt;/div&gt;&lt;div style=&quot;font-family: &amp;quot;JetBrains Mono&amp;quot;, monospace; font-size: 12pt;&quot;&gt;&lt;span style=&quot;color: rgb(188, 190, 196);&quot;&gt;&amp;nbsp;- Throwable&amp;nbsp;&lt;span style=&quot;color: rgb(199, 125, 187);&quot;&gt;createAdaptiveInstanceError&lt;/span&gt;&lt;br&gt;&amp;nbsp;- ConcurrentMap&amp;lt;String, Holder&amp;lt;&lt;span style=&quot;color: rgb(22, 186, 172);&quot;&gt;T&lt;/span&gt;&amp;gt;&amp;gt;&amp;nbsp;&lt;span style=&quot;color: rgb(199, 125, 187);&quot;&gt;cachedInstances&lt;/span&gt;&lt;br&gt;&amp;nbsp;- String&amp;nbsp;&lt;span style=&quot;color: rgb(199, 125, 187);&quot;&gt;cachedDefaultName&lt;/span&gt;&lt;br&gt;&amp;nbsp;- ExtensionFactory&amp;nbsp;&lt;span style=&quot;color: rgb(199, 125, 187);&quot;&gt;objectFactory&lt;/span&gt;&lt;/span&gt;&lt;/div&gt;&lt;/div&gt;" style="verticalAlign=top;align=left;overflow=fill;fontSize=12;fontFamily=Helvetica;html=1;" parent="1" vertex="1">
          <mxGeometry x="1158" y="716" width="693" height="311" as="geometry" />
        </mxCell>
        <mxCell id="tLkMSXgyPgKeuEgTVChs-1" value="" style="shape=stencil(fZbdcgIhDIWfZm8zQAg/17Z9j85U606tdqz9e/tmZ0c0uJ47xP0I5JwEBl59bp8/1kNwn6fj4W39M76ctgM/DCGM++36OJ50NPDjwKvN4bh+PR6+9i/z74/n6ctp9H74nlb4nbmSKZeJCu5vngmZ6jzzNAO7cX8FVKEsBuBKrgKg9oAE8gkCbLeUhEoEQKSUDZDLeWYRKIl8MEDRmHwfyBrBG6Amyu4+kDxxMoB3jhwgYu7TVAsVkFcWCs4CTBEoF4RctKeOxHIf8IXYpikHikAIf+MNUW94AGSSaoAoFIE3AlOyeWU+p2E5S9yfQZcQILVuQOwZdJNoS9Ls3wA5u2XZTIHECqeJ9kDpSaauRiNVcAY1QhdBzeLBli5WazpkSsBLV25uRaqWRyFawTQzRRIQYirJzq5atkBqLfouwqUxLBepthWb10vrWZY6UOAeyKCCtDV625mm9gmUC4Wc3VLJMMIE1BsA2FW9JraVlQB7n3c9oMKhCLEvIM1zBPZ25/umNQ1tVEC2G+fFCC8g398O2hNQuQlVu752DBfA+q0ptnqO5JFmeuIuo9DY7KjY71UxdJV4EntifPWorW++R/dC4t7V3DlIB5cHx2bc7eb3yvX//QNFp+bHDT/+Aw==);lineShape=1;sketch=0;hachureGap=4;" parent="1" vertex="1">
          <mxGeometry x="934.8679608424759" y="1109.8753124585194" width="4.672539772115215" height="4.665236216357243" as="geometry" />
        </mxCell>
        <mxCell id="BsxaBePxiwvcR2pWt4NN-4" style="edgeStyle=orthogonalEdgeStyle;rounded=0;orthogonalLoop=1;jettySize=auto;html=1;exitX=0;exitY=0.5;exitDx=0;exitDy=0;strokeColor=default;startArrow=open;startFill=0;endArrow=diamondThin;endFill=0;strokeWidth=1;" edge="1" parent="1" source="BsxaBePxiwvcR2pWt4NN-1" target="bW7gFCEQgYg3LuaQaCkl-20">
          <mxGeometry relative="1" as="geometry" />
        </mxCell>
        <mxCell id="BsxaBePxiwvcR2pWt4NN-1" value="&lt;div style=&quot;text-align: center; font-size: 16px;&quot;&gt;&lt;i style=&quot;&quot;&gt;&lt;br&gt;&lt;/i&gt;&lt;/div&gt;&lt;div style=&quot;text-align: center; font-size: 16px;&quot;&gt;&lt;i style=&quot;&quot;&gt;&amp;lt;&amp;lt;Interface&amp;gt;&amp;gt;&lt;/i&gt;&lt;/div&gt;&lt;div style=&quot;text-align: center; font-size: 16px;&quot;&gt;Complier&lt;/div&gt;&lt;div style=&quot;height:2px;&quot;&gt;&lt;p&gt;&lt;/p&gt;&lt;hr style=&quot;text-align: center;&quot; size=&quot;1&quot;&gt;&lt;p style=&quot;margin: 4px 0px 0px;&quot;&gt;&lt;span style=&quot;color: rgb(188, 190, 196); font-family: &amp;quot;JetBrains Mono&amp;quot;, monospace; font-size: 16px;&quot;&gt;&amp;nbsp;+&amp;nbsp;&lt;/span&gt;&lt;span style=&quot;color: rgb(188, 190, 196); font-family: &amp;quot;JetBrains Mono&amp;quot;, monospace; font-size: 12pt;&quot;&gt;Class&amp;lt;?&amp;gt; &lt;/span&gt;&lt;span style=&quot;font-family: &amp;quot;JetBrains Mono&amp;quot;, monospace; font-size: 12pt; color: rgb(86, 168, 245);&quot;&gt;compile&lt;/span&gt;&lt;span style=&quot;color: rgb(188, 190, 196); font-family: &amp;quot;JetBrains Mono&amp;quot;, monospace; font-size: 12pt;&quot;&gt;(String code, ClassLoader classLoader)&lt;/span&gt;&lt;/p&gt;&lt;/div&gt;" style="verticalAlign=top;align=left;overflow=fill;fontSize=12;fontFamily=Helvetica;html=1;" vertex="1" parent="1">
          <mxGeometry x="1964" y="813.5" width="564" height="116" as="geometry" />
        </mxCell>
        <mxCell id="BsxaBePxiwvcR2pWt4NN-6" style="edgeStyle=orthogonalEdgeStyle;rounded=0;orthogonalLoop=1;jettySize=auto;html=1;exitX=0;exitY=0.5;exitDx=0;exitDy=0;strokeColor=default;strokeWidth=1;startArrow=none;startFill=0;endArrow=classic;endFill=1;" edge="1" parent="1" source="BsxaBePxiwvcR2pWt4NN-5" target="BsxaBePxiwvcR2pWt4NN-1">
          <mxGeometry relative="1" as="geometry">
            <mxPoint x="2531.3333333333335" y="876.3333333333335" as="targetPoint" />
          </mxGeometry>
        </mxCell>
        <mxCell id="BsxaBePxiwvcR2pWt4NN-5" value="&lt;div style=&quot;text-align: center; font-size: 16px;&quot;&gt;&lt;i style=&quot;&quot;&gt;&lt;br&gt;&lt;/i&gt;&lt;/div&gt;&lt;div style=&quot;text-align: center; font-size: 16px;&quot;&gt;&lt;i style=&quot;&quot;&gt;&amp;lt;&amp;lt;Abstract Class&amp;gt;&amp;gt;&lt;/i&gt;&lt;/div&gt;&lt;div style=&quot;text-align: center; font-size: 16px;&quot;&gt;AbstractComplier&lt;/div&gt;&lt;div style=&quot;height:2px;&quot;&gt;&lt;p&gt;&lt;/p&gt;&lt;hr style=&quot;text-align: center;&quot; size=&quot;1&quot;&gt;&lt;p style=&quot;margin: 4px 0px 0px;&quot;&gt;&lt;span style=&quot;color: rgb(188, 190, 196); font-family: &amp;quot;JetBrains Mono&amp;quot;, monospace; font-size: 16px;&quot;&gt;&amp;nbsp;+&amp;nbsp;&lt;/span&gt;&lt;span style=&quot;color: rgb(188, 190, 196); font-family: &amp;quot;JetBrains Mono&amp;quot;, monospace; font-size: 12pt;&quot;&gt;Class&amp;lt;?&amp;gt; &lt;/span&gt;&lt;span style=&quot;font-family: &amp;quot;JetBrains Mono&amp;quot;, monospace; font-size: 12pt; color: rgb(86, 168, 245);&quot;&gt;compile&lt;/span&gt;&lt;span style=&quot;color: rgb(188, 190, 196); font-family: &amp;quot;JetBrains Mono&amp;quot;, monospace; font-size: 12pt;&quot;&gt;(String code, ClassLoader classLoader)&lt;/span&gt;&lt;/p&gt;&lt;p style=&quot;margin: 4px 0px 0px;&quot;&gt;&lt;span style=&quot;color: rgb(188, 190, 196); font-family: &amp;quot;JetBrains Mono&amp;quot;, monospace; font-size: 12pt;&quot;&gt;&amp;nbsp;-&amp;nbsp;&lt;/span&gt;&lt;span style=&quot;font-family: &amp;quot;JetBrains Mono&amp;quot;, monospace; font-size: 12pt; color: rgb(207, 142, 109);&quot;&gt;abstract &lt;/span&gt;&lt;span style=&quot;color: rgb(188, 190, 196); font-family: &amp;quot;JetBrains Mono&amp;quot;, monospace; font-size: 12pt;&quot;&gt;Class&amp;lt;?&amp;gt; &lt;/span&gt;&lt;span style=&quot;font-family: &amp;quot;JetBrains Mono&amp;quot;, monospace; font-size: 12pt; color: rgb(86, 168, 245);&quot;&gt;doCompile&lt;/span&gt;&lt;span style=&quot;color: rgb(188, 190, 196); font-family: &amp;quot;JetBrains Mono&amp;quot;, monospace; font-size: 12pt;&quot;&gt;(String name, String source)&lt;/span&gt;&lt;/p&gt;&lt;/div&gt;" style="verticalAlign=top;align=left;overflow=fill;fontSize=12;fontFamily=Helvetica;html=1;" vertex="1" parent="1">
          <mxGeometry x="2588" y="805" width="568" height="133" as="geometry" />
        </mxCell>
        <mxCell id="BsxaBePxiwvcR2pWt4NN-8" style="edgeStyle=orthogonalEdgeStyle;rounded=0;orthogonalLoop=1;jettySize=auto;html=1;exitX=0.5;exitY=0;exitDx=0;exitDy=0;entryX=0.5;entryY=1;entryDx=0;entryDy=0;strokeColor=default;strokeWidth=1;startArrow=none;startFill=0;endArrow=classic;endFill=1;" edge="1" parent="1" source="BsxaBePxiwvcR2pWt4NN-7" target="BsxaBePxiwvcR2pWt4NN-5">
          <mxGeometry relative="1" as="geometry" />
        </mxCell>
        <mxCell id="BsxaBePxiwvcR2pWt4NN-7" value="&lt;div style=&quot;text-align: center; font-size: 16px;&quot;&gt;&lt;i style=&quot;&quot;&gt;&lt;br&gt;&lt;/i&gt;&lt;/div&gt;&lt;div style=&quot;text-align: center; font-size: 16px;&quot;&gt;&lt;i style=&quot;&quot;&gt;&amp;lt;&amp;lt;Class&amp;gt;&amp;gt;&lt;/i&gt;&lt;/div&gt;&lt;div style=&quot;text-align: center; font-size: 16px;&quot;&gt;AdaptiveComplier&lt;/div&gt;&lt;div style=&quot;height:2px;&quot;&gt;&lt;p&gt;&lt;/p&gt;&lt;hr style=&quot;text-align: center;&quot; size=&quot;1&quot;&gt;&lt;p style=&quot;margin: 4px 0px 0px;&quot;&gt;&lt;span style=&quot;color: rgb(188, 190, 196); font-family: &amp;quot;JetBrains Mono&amp;quot;, monospace; font-size: 16px;&quot;&gt;&amp;nbsp;-&amp;nbsp;&lt;/span&gt;&lt;span style=&quot;background-color: initial; color: rgb(188, 190, 196); font-family: &amp;quot;JetBrains Mono&amp;quot;, monospace; font-size: 12pt;&quot;&gt;Class&amp;lt;?&amp;gt;&amp;nbsp;&lt;/span&gt;&lt;span style=&quot;background-color: initial; font-family: &amp;quot;JetBrains Mono&amp;quot;, monospace; font-size: 12pt; color: rgb(86, 168, 245);&quot;&gt;doCompile&lt;/span&gt;&lt;span style=&quot;background-color: initial; color: rgb(188, 190, 196); font-family: &amp;quot;JetBrains Mono&amp;quot;, monospace; font-size: 12pt;&quot;&gt;(String name, String source)&lt;/span&gt;&lt;/p&gt;&lt;/div&gt;" style="verticalAlign=top;align=left;overflow=fill;fontSize=12;fontFamily=Helvetica;html=1;" vertex="1" parent="1">
          <mxGeometry x="2291" y="1194" width="568" height="107" as="geometry" />
        </mxCell>
        <mxCell id="BsxaBePxiwvcR2pWt4NN-10" style="edgeStyle=orthogonalEdgeStyle;rounded=0;orthogonalLoop=1;jettySize=auto;html=1;exitX=0.5;exitY=0;exitDx=0;exitDy=0;entryX=0.5;entryY=1;entryDx=0;entryDy=0;strokeColor=default;strokeWidth=1;startArrow=none;startFill=0;endArrow=classic;endFill=1;" edge="1" parent="1" source="BsxaBePxiwvcR2pWt4NN-9" target="BsxaBePxiwvcR2pWt4NN-5">
          <mxGeometry relative="1" as="geometry" />
        </mxCell>
        <mxCell id="BsxaBePxiwvcR2pWt4NN-9" value="&lt;div style=&quot;text-align: center; font-size: 16px;&quot;&gt;&lt;i style=&quot;&quot;&gt;&lt;br&gt;&lt;/i&gt;&lt;/div&gt;&lt;div style=&quot;text-align: center; font-size: 16px;&quot;&gt;&lt;i style=&quot;&quot;&gt;&amp;lt;&amp;lt;Class&amp;gt;&amp;gt;&lt;/i&gt;&lt;/div&gt;&lt;div style=&quot;text-align: center; font-size: 16px;&quot;&gt;JavassistComplier&lt;/div&gt;&lt;div style=&quot;height:2px;&quot;&gt;&lt;p&gt;&lt;/p&gt;&lt;hr style=&quot;text-align: center;&quot; size=&quot;1&quot;&gt;&lt;p style=&quot;margin: 4px 0px 0px;&quot;&gt;&lt;span style=&quot;color: rgb(188, 190, 196); font-family: &amp;quot;JetBrains Mono&amp;quot;, monospace; font-size: 16px;&quot;&gt;&amp;nbsp;-&amp;nbsp;&lt;/span&gt;&lt;span style=&quot;background-color: initial; color: rgb(188, 190, 196); font-family: &amp;quot;JetBrains Mono&amp;quot;, monospace; font-size: 12pt;&quot;&gt;Class&amp;lt;?&amp;gt;&amp;nbsp;&lt;/span&gt;&lt;span style=&quot;background-color: initial; font-family: &amp;quot;JetBrains Mono&amp;quot;, monospace; font-size: 12pt; color: rgb(86, 168, 245);&quot;&gt;doCompile&lt;/span&gt;&lt;span style=&quot;background-color: initial; color: rgb(188, 190, 196); font-family: &amp;quot;JetBrains Mono&amp;quot;, monospace; font-size: 12pt;&quot;&gt;(String name, String source)&lt;/span&gt;&lt;/p&gt;&lt;/div&gt;" style="verticalAlign=top;align=left;overflow=fill;fontSize=12;fontFamily=Helvetica;html=1;" vertex="1" parent="1">
          <mxGeometry x="2896" y="1194" width="568" height="107" as="geometry" />
        </mxCell>
        <mxCell id="BsxaBePxiwvcR2pWt4NN-11" value="&lt;div style=&quot;text-align: center; font-size: 16px;&quot;&gt;&lt;i style=&quot;&quot;&gt;&lt;br&gt;&lt;/i&gt;&lt;/div&gt;&lt;div style=&quot;text-align: center; font-size: 16px;&quot;&gt;&lt;i style=&quot;&quot;&gt;&amp;lt;&amp;lt;Class&amp;gt;&amp;gt;&lt;/i&gt;&lt;/div&gt;&lt;div style=&quot;text-align: center; font-size: 16px;&quot;&gt;Holder&amp;lt;T&amp;gt;&lt;/div&gt;&lt;div style=&quot;height:2px;&quot;&gt;&lt;p&gt;&lt;/p&gt;&lt;hr style=&quot;text-align: center;&quot; size=&quot;1&quot;&gt;&lt;p style=&quot;margin: 4px 0px 0px;&quot;&gt;&lt;span style=&quot;color: rgb(188, 190, 196); font-family: &amp;quot;JetBrains Mono&amp;quot;, monospace; font-size: 16px;&quot;&gt;&amp;nbsp;-&amp;nbsp;&lt;/span&gt;&lt;span style=&quot;font-family: &amp;quot;JetBrains Mono&amp;quot;, monospace; font-size: 12pt; color: rgb(22, 186, 172);&quot;&gt;T &lt;/span&gt;&lt;span style=&quot;font-family: &amp;quot;JetBrains Mono&amp;quot;, monospace; font-size: 12pt; color: rgb(199, 125, 187);&quot;&gt;value&lt;/span&gt;&lt;span style=&quot;color: rgb(188, 190, 196); font-family: &amp;quot;JetBrains Mono&amp;quot;, monospace; font-size: 12pt;&quot;&gt;;&lt;/span&gt;&lt;/p&gt;&lt;/div&gt;" style="verticalAlign=top;align=left;overflow=fill;fontSize=12;fontFamily=Helvetica;html=1;" vertex="1" parent="1">
          <mxGeometry x="1971" y="574" width="550" height="107" as="geometry" />
        </mxCell>
        <mxCell id="BsxaBePxiwvcR2pWt4NN-12" style="edgeStyle=orthogonalEdgeStyle;rounded=0;orthogonalLoop=1;jettySize=auto;html=1;exitX=0;exitY=0.5;exitDx=0;exitDy=0;strokeColor=default;startArrow=open;startFill=0;endArrow=diamondThin;endFill=0;strokeWidth=1;entryX=1;entryY=0.25;entryDx=0;entryDy=0;" edge="1" parent="1" source="BsxaBePxiwvcR2pWt4NN-11" target="bW7gFCEQgYg3LuaQaCkl-20">
          <mxGeometry relative="1" as="geometry">
            <mxPoint x="1974" y="881.5" as="sourcePoint" />
            <mxPoint x="1861" y="881.5" as="targetPoint" />
          </mxGeometry>
        </mxCell>
      </root>
    </mxGraphModel>
  </diagram>
</mxfile>
